<?xml version="1.0" encoding="utf-8"?>
<!-- Generator: Adobe Illustrator 18.0.0, SVG Export Plug-In . SVG Version: 6.00 Build 0)  -->
<!DOCTYPE svg PUBLIC "-//W3C//DTD SVG 1.1//EN" "http://www.w3.org/Graphics/SVG/1.1/DTD/svg11.dtd">
<svg version="1.1" id="Calque_1" xmlns="http://www.w3.org/2000/svg" xmlns:xlink="http://www.w3.org/1999/xlink" x="0px" y="0px"
	 viewBox="0 0 400 400" enable-background="new 0 0 400 400" xml:space="preserve">
<g>
	<linearGradient id="SVGID_1_" gradientUnits="userSpaceOnUse" x1="55.2348" y1="156.178" x2="211.4875" y2="156.178">
		<stop  offset="0" style="stop-color:#EE721B"/>
		<stop  offset="1" style="stop-color:#F28D15"/>
	</linearGradient>
	<path fill="url(#SVGID_1_)" d="M151.7,22.7l-96.2,97.6v121.5c0,0-9.3,57.7,81,46.5c0,0-28.5-16.6-28.5-49.8s0-91.6,0-91.6
		l103.5-96.2L151.7,22.7z"/>
	<linearGradient id="SVGID_2_" gradientUnits="userSpaceOnUse" x1="128.5184" y1="64.4739" x2="326.3166" y2="64.4739">
		<stop  offset="0" style="stop-color:#EE721B"/>
		<stop  offset="1" style="stop-color:#F28D15"/>
	</linearGradient>
	<path fill="url(#SVGID_2_)" d="M326.3,113L223.4,16.1c0,0-35.2-27.2-65-2l-29.9,35.8c0,0,39.2-7.3,66.4,17.3s63.7,53.1,63.7,53.1
		S301.1,136.2,326.3,113z"/>
	<linearGradient id="SVGID_3_" gradientUnits="userSpaceOnUse" x1="141.1297" y1="204.5648" x2="232.0638" y2="204.5648">
		<stop  offset="0" style="stop-color:#EE721B"/>
		<stop  offset="1" style="stop-color:#F28D15"/>
	</linearGradient>
	<polygon fill="url(#SVGID_3_)" points="232.1,116.3 141.1,128.9 146.4,292.8 228.1,292.2 	"/>
	<polygon fill="#FFFFFF" points="150.4,148.1 172.3,147.5 171.7,170 149.1,168.7 	"/>
	<polygon fill="#FFFFFF" points="170.3,174.7 149.1,174 149.1,195.3 171.7,194.6 	"/>
	<polygon fill="#FFFFFF" points="175.6,151.5 196.2,150.1 196.9,172 175,172 	"/>
	<polygon fill="#FFFFFF" points="175,178.7 197.5,178 196.9,198.6 175,198.6 	"/>
	<polygon fill="#FFFFFF" points="186.3,229.8 218.8,229.8 218.1,288.9 186.9,289.5 	"/>
</g>
<path fill="#EC6C1F" d="M314,337.7c6.3-7.9,9.2-7.8,16.2,0.9c0.3-0.2,0.7-0.4,0.9-0.7c1.9-3.4,2.9-8.2,8.2-7.5
	c5.1,0.6,7.1,5,8.6,9.2c3.6,10,2.5,20.5,2.5,30.9c0,2.4-1.2,5-4.2,4.3c-2.5-0.5-3.2-2.3-2.7-5.3c1.5-9.5,0.8-19-1.3-28.4
	c-0.4-1.8-0.6-4.2-2.9-4.5c-2.6-0.4-3.4,2-4.3,3.9c-3.1,7-3.3,14.4-3.1,21.8c0,1.9,0,3.8,0,5.7c0,2-0.4,4.1-2.8,4.3
	c-2.7,0.3-2.9-2.1-3.1-3.9c-0.4-4.9-0.5-9.7-0.8-14.6c-0.3-4-0.5-8-1-12c-0.2-1.6-0.4-3.7-2.5-4.1c-2.2-0.4-3.5,1.4-4.4,3
	c-2.5,4.3-3.5,9-3.5,14c0,4.9-0.1,9.8-0.2,14.6c-0.1,2.3-1.1,4.3-3.7,4.3c-3.2,0-2.7-2.5-2.7-4.6c0.1-10.8,0-21.6,0.1-32.4
	c0-2.8-1.1-7.1,2.7-7.4c4.7-0.3,3.2,4.4,3.7,7.3C313.7,337,313.9,337.4,314,337.7z"/>
<path fill="#EC6C1F" d="M260.5,337.7c6.3-7.9,9.3-7.8,16.2,0.9c0.3-0.2,0.8-0.4,0.9-0.7c1.9-3.4,2.9-8.2,8.2-7.6
	c5.1,0.6,7.1,5,8.6,9.2c3.6,10,2.6,20.5,2.5,30.9c0,2.4-1.2,5-4.2,4.3c-2.5-0.5-3.2-2.3-2.7-5.3c1.5-9.5,0.8-19-1.3-28.4
	c-0.4-1.8-0.6-4.2-2.9-4.5c-2.7-0.4-3.4,2-4.3,3.9c-2.1,4.7-3,9.7-3.1,14.8c-0.1,3.8,0,7.6,0,11.5c0,2.3,0.4,5.3-2.8,5.5
	c-3.4,0.3-3-3-3.2-5.1c-0.4-4.6-0.4-9.3-0.7-14c-0.2-3.8-0.5-7.6-1-11.4c-0.2-1.6-0.4-3.7-2.4-4.1c-2.2-0.4-3.5,1.4-4.4,3
	c-2.5,4.3-3.5,9-3.5,14c0,4.9-0.1,9.8-0.2,14.6c-0.1,2.3-1.1,4.3-3.7,4.3c-3.2,0-2.7-2.4-2.7-4.6c0.1-10.8,0-21.6,0.1-32.4
	c0-2.8-1.1-7.1,2.7-7.4c4.7-0.3,3.2,4.3,3.7,7.2C260.2,337,260.4,337.4,260.5,337.7z"/>
<path fill="#010101" d="M192.3,359.9c-2.1,4.8-3.3,8-5.6,10.6c-5.7,6.5-13.8,5.2-17.2-2.7c-2.7-6.2-2.1-12.9-2.2-19.4
	c0-3.6,0.2-7.2-0.1-10.8c-0.2-3.1,0-5.8,3.9-5.6c3.8,0.3,3.9,3.4,3.3,6.2c-1.1,5.7-1,11.4-0.9,17.1c0.1,4.8-0.7,11.2,5.3,12.1
	c5.4,0.8,7-5.2,8.6-9.4c2.9-7.3,4.7-14.9,5.1-22.8c0.1-2.4,0-5.7,3.6-5.5c3.7,0.2,3.1,3.4,2.8,5.9c-1.8,14.6-1.1,29.2-1.4,43.8
	c-0.3,14.5-9.3,20.8-23.1,16c-2.7-1-4.6-2.7-3.7-5.7c1.1-3.3,3.5-1.7,5.7-1c10.7,3.2,15.4-0.1,15.7-11.2
	C192.4,372.2,192.3,367,192.3,359.9z"/>
<path fill="#010101" d="M26.3,364.6c3.8-6.2,5.2-12.8,6.8-19.3c2.8-11.3,5.8-22.6,6.6-34.3c0.2-3,1.3-5.2,4.6-4.6
	c2.6,0.4,3.9,2.2,3.2,5.1c-4.5,18.5-7.2,37.4-14.8,55.1c-0.3,0.8-0.7,1.6-1.1,2.3c-1.2,2.2-2.3,4.9-5.4,4.6
	c-2.9-0.2-4.3-2.6-5.4-4.9C17,360,15,351,13,341.9c-2.1-9.5-2.9-19.3-6.2-28.5c-0.9-2.4-0.2-4.2,2.3-5c3.1-1,4.8,0.5,5.3,3.6
	c2,11.2,3.9,22.5,6.1,33.7C21.8,352,22.8,358.5,26.3,364.6z"/>
<path fill="#020202" d="M89.5,374.9c-3,0-8.1-1.4-12.3-4.9c-1.9-1.6-3.8-4.1-1.3-6.5c2.1-2.1,4.4-0.4,6,1.4
	c3.7,4.4,8.4,5.6,13.7,4.1c4.8-1.4,5.7-4.6,1.8-7.7c-3.3-2.6-7.1-4.5-10.8-6.6c-5.6-3.3-10-7.2-8.8-14.7c0.8-5.5,4.1-8.6,9.3-10.1
	c6-1.7,14.2,0.8,17.9,5.3c1.5,1.8,2.4,3.8,0.7,5.7c-1.9,2.1-3.8,0.8-5.4-0.8c-1.8-1.8-3.5-3.9-6-4.5c-3.5-0.8-7-0.4-8.9,3.1
	c-2.1,3.7-0.2,6.6,2.9,8.6c3.3,2.2,6.9,4.1,10.3,6.3c4.6,3,10,5.7,8.4,12.7C105.7,371.4,99.5,374.8,89.5,374.9z"/>
<path fill="#010101" d="M152.2,374.2c-4.6-0.1-7.2-2.6-8.5-7c-1.9-6.7-0.9-13.5-1-20.2c-0.1-3.5,0.1-6.5-4.9-5.3
	c-3,0.7-4.2-1.4-4.7-3.9c-0.7-3.5,2.3-3.5,4-3.3c5.4,0.5,6.3-2.2,5.8-6.7c-0.2-2.1,0.2-4.2,0.2-6.3c0-2.3,0.3-4.5,3.2-4.3
	c2.7,0.1,5,1.3,5.2,4.5c0.1,1.2-0.2,2.5-0.4,3.8c-0.8,5.1-2,10.4,6.5,8.8c1.2-0.2,2.7,0.4,3,1.8c0.3,1.5-1.3,2.6-2.3,2.6
	c-10.7,0-8.6,7.9-8.7,14.2c-0.1,4-0.3,8.1,0.4,12c0.9,5.1,3.6,5.8,7.4,2.4c0.8-0.7,1.6-1.7,2.7-1.1c1.4,0.7,1.2,2.2,0.7,3.3
	C159,373,155.8,374,152.2,374.2z"/>
<path fill="#EC6C1F" d="M234,373c-2.4,0.5-3.6-0.9-4.2-2.9c-0.8-2.5,0.9-3.6,3-3.8c2.5-0.3,3-1.6,3-3.8c-0.1-14.2-0.1-28.4,0-42.5
	c0-2.7-1-3.6-3.4-4.1c-1.4-0.3-2.4-1.9-2.2-3.5c0.2-1.8,1.8-2.2,3.3-2.3c3.4-0.2,6.8-0.4,9.9-1.9c2.1-1,3.2,0.2,4,1.9
	c0.9,2,0.7,3.9-1.8,4.5c-2.1,0.5-3.2,1-3.4,3.5c-0.8,13.9-1.1,27.9-0.2,41.8c0.2,2.4-0.6,5.2,3.7,4.9c1.9-0.1,3.1,2.2,2.8,4.3
	c-0.2,2.1-2,2.4-3.8,2.6C241.1,372,237.6,372.5,234,373z"/>
<path fill="#010101" d="M56.2,351.4c0-5.1,0-10.1,0-15.2c0-2.3-0.3-5.1,3.3-4.7c2.6,0.3,4.3,2,3.9,4.8c-1.3,10.7-1.2,21.5-0.5,32.2
	c0.1,2.1-0.3,4.6-2.9,4.9c-2.6,0.2-3.7-2.2-3.8-4.2C56,363.2,56.2,357.3,56.2,351.4z"/>
<path fill="#010101" d="M116.1,351.9c0-5.5,0-11,0-16.5c0-2,0.3-4.1,2.9-4c2.6,0.1,4.7,1.6,4.4,4.4c-1.2,10.9-1.2,21.9-0.5,32.8
	c0.1,2.1-0.4,4.6-3.1,4.7c-2.5,0-3.6-2.3-3.7-4.4C115.9,363.3,116.1,357.6,116.1,351.9z"/>
<path fill="#060606" d="M65.3,315.7c0.1,3.1-1.2,5.1-4.4,4.8c-3.4-0.3-5.5-2.4-5.6-5.8c-0.1-2.8,1.5-4.9,4.7-4.8
	C63.5,310.1,65.3,312.2,65.3,315.7z"/>
<path fill="#060606" d="M125.2,315.6c0.1,3-1.1,5-3.9,4.9c-3.7-0.1-6-2.4-6-6c0-2.8,1.7-4.9,4.8-4.6
	C123.6,310.2,125.3,312.4,125.2,315.6z"/>
<path fill="#EC6C1F" d="M391.7,351.9c0-4.7-0.5-8.9-2.4-12.8c-3.1-6.3-8.1-9.7-15-9.9c-6.9-0.1-10.8,4.3-13.4,10
	c-3.9,8.4-4.3,17.2-1.2,25.9c2.2,6,6.5,10.1,13,10.7c6.2,0.6,11-2.5,14.4-7.6C390.5,363.2,391.9,357.5,391.7,351.9z M381.5,365.6
	c-5.3,6.2-13.2,4.7-16.2-2.9c-2.5-6.5-1.9-13,0.8-19.2c1.8-4.2,4.4-8.1,9.7-7.8c5.4,0.3,8.2,4,9.6,8.8c0.6,2,0.7,4.1,0.8,4.7
	C386.4,356.3,385.2,361.4,381.5,365.6z"/>
</svg>
